<?xml version="1.0" standalone="no"?>
<!DOCTYPE svg PUBLIC "-//W3C//DTD SVG 20010904//EN"
 "http://www.w3.org/TR/2001/REC-SVG-20010904/DTD/svg10.dtd">
<svg version="1.0" xmlns="http://www.w3.org/2000/svg"
 width="512.000000pt" height="512.000000pt" viewBox="0 0 512.000000 512.000000"
 preserveAspectRatio="xMidYMid meet">
<metadata>
Created by potrace 1.11, written by Peter Selinger 2001-2013
</metadata>
<g transform="translate(0.000000,512.000000) scale(0.100000,-0.100000)"
fill="#000000" stroke="none">
<path d="M964 4599 c-148 -18 -288 -107 -368 -234 -42 -65 -64 -119 -76 -180
-5 -31 -8 -674 -7 -1655 l2 -1605 23 -64 c59 -163 185 -284 346 -332 l71 -22
1605 0 c1493 0 1609 1 1665 17 137 40 256 135 319 256 69 131 66 27 66 1770 0
1100 -3 1594 -11 1635 -14 78 -78 201 -135 258 -84 86 -190 140 -297 153 -67
9 -3135 11 -3203 3z m596 -722 c211 -121 497 -286 760 -439 52 -30 115 -66
140 -80 25 -14 86 -49 135 -78 50 -29 106 -61 125 -72 91 -52 177 -102 198
-115 23 -14 20 -17 -115 -95 -76 -44 -181 -106 -233 -137 -52 -30 -108 -63
-125 -71 -16 -9 -48 -27 -70 -39 -95 -55 -211 -122 -225 -131 -15 -9 -335
-194 -375 -216 -99 -56 -249 -144 -260 -154 -8 -7 -15 -9 -15 -5 0 5 -8 1 -17
-7 -10 -9 -36 -25 -58 -37 -22 -12 -49 -27 -60 -34 -62 -39 -97 -58 -101 -54
-5 5 -7 318 -2 321 2 2 95 56 208 121 113 64 219 125 235 135 17 9 121 69 231
133 111 64 235 135 275 159 41 24 85 49 99 56 43 23 66 44 53 49 -7 2 -27 14
-45 27 -18 12 -41 25 -50 29 -10 3 -43 22 -73 42 -31 19 -59 35 -63 35 -4 0
-23 11 -42 23 -19 13 -55 35 -80 49 -25 14 -106 60 -180 103 -74 43 -155 90
-180 104 -315 179 -390 225 -391 240 -1 24 -1 251 0 284 l1 29 33 -20 c17 -11
138 -81 267 -155z"/>
</g>
</svg>
